<svg width="18" height="18" viewBox="0 0 18 18" fill="none" xmlns="http://www.w3.org/2000/svg">
<path d="M17.7307 11.1771C16.5287 15.9986 11.6453 18.9329 6.82329 17.7306C2.00326 16.5285 -0.930992 11.6449 0.271551 6.82378C1.47304 2.00177 6.35641 -0.932704 11.177 0.269311C15.9987 1.47133 18.9327 6.35553 17.7306 11.1772L17.7307 11.1771H17.7307Z" fill="#F7931A"/>
<path fill-rule="evenodd" clip-rule="evenodd" d="M12.9696 7.7176C13.1487 6.5199 12.2368 5.87609 10.99 5.4466L11.3945 3.82421L10.4069 3.57812L10.0131 5.1578C9.75346 5.09305 9.48682 5.03203 9.22182 4.97154L9.61845 3.38144L8.63146 3.13535L8.22674 4.75722C8.01189 4.7083 7.80086 4.65995 7.59613 4.60901L7.59727 4.60391L6.23535 4.26381L5.97263 5.31863C5.97263 5.31863 6.70535 5.48659 6.68991 5.49693C7.08983 5.59675 7.16216 5.86148 7.15015 6.07132L6.68938 7.91961C6.71692 7.92661 6.75264 7.93672 6.79206 7.95256L6.76334 7.94539C6.73898 7.9393 6.71366 7.93296 6.68767 7.92674L6.04183 10.5159C5.99296 10.6374 5.8689 10.8198 5.58929 10.7505C5.59919 10.7649 4.87149 10.5714 4.87149 10.5714L4.38116 11.7019L5.66637 12.0223C5.80707 12.0576 5.94612 12.0938 6.08375 12.1297L6.08388 12.1297L6.084 12.1298C6.18016 12.1548 6.27562 12.1797 6.37049 12.204L5.96181 13.845L6.94827 14.091L7.35299 12.4675C7.62248 12.5406 7.88401 12.6081 8.14003 12.6717L7.73668 14.2876L8.72433 14.5337L9.13296 12.8958C10.817 13.2145 12.0833 13.086 12.6163 11.5628C13.0458 10.3364 12.5949 9.62902 11.709 9.16773C12.3543 9.01891 12.8403 8.59448 12.9699 7.71774L12.9696 7.71752L12.9696 7.7176ZM10.7131 10.8817C10.4331 12.0069 8.67185 11.5417 7.86604 11.3289L7.86603 11.3289C7.79355 11.3097 7.72879 11.2926 7.67355 11.2789L8.21587 9.10488C8.28321 9.12169 8.36549 9.14016 8.45871 9.16108C9.29222 9.34814 11 9.73139 10.7131 10.8817H10.7131ZM8.6259 8.15211C9.29771 8.33141 10.7633 8.72253 11.0185 7.69989H11.0186C11.2792 6.65399 9.85495 6.33866 9.15933 6.18465C9.08108 6.16732 9.01204 6.15204 8.95567 6.13799L8.46398 8.10972C8.5104 8.12129 8.56488 8.13583 8.6259 8.15211Z" fill="white"/>
</svg>
